<svg xmlns="http://www.w3.org/2000/svg" width="90" viewBox="0 0 90 90" height="90" version="1.0"><defs><clipPath id="a"><path d="M 16.761719 16.761719 L 73.011719 16.761719 L 73.011719 73.011719 L 16.761719 73.011719 Z M 16.761719 16.761719"/></clipPath></defs><g clip-path="url(#a)"><path fill="#4ABC96" d="M 16.761719 44.886719 C 16.761719 29.355469 29.355469 16.761719 44.886719 16.761719 C 60.417969 16.761719 73.011719 29.355469 73.011719 44.886719 C 73.011719 60.417969 60.417969 73.011719 44.886719 73.011719 C 29.355469 73.011719 16.761719 60.417969 16.761719 44.886719 Z M 16.761719 44.886719"/></g><path fill="#FFF" d="M 61.007812 61.199219 L 35.558594 65.269531 L 29.945312 30.09375 L 55.386719 26.023438 Z M 61.007812 61.199219"/><path fill="#0EA24A" d="M 47.132812 56.507812 C 47.132812 52.371094 50.488281 49.023438 54.613281 49.023438 C 58.75 49.023438 62.097656 52.378906 62.097656 56.507812 C 62.097656 60.644531 58.742188 63.988281 54.613281 63.988281 C 50.488281 63.988281 47.132812 60.644531 47.132812 56.507812"/><path fill="#FFF" d="M 53.71875 52.617188 L 56.007812 52.617188 L 56.007812 60.578125 L 53.71875 60.578125 Z M 53.71875 52.617188"/><path fill="#FFF" d="M 50.882812 55.453125 L 58.84375 55.453125 L 58.84375 57.742188 L 50.882812 57.742188 Z M 50.882812 55.453125"/><path fill="#2F8442" d="M 53.820312 31.226562 L 33.074219 34.539062 L 32.859375 33.222656 L 53.617188 29.914062 Z M 53.820312 31.226562"/><path fill="#2F8442" d="M 54.421875 34.503906 L 33.675781 37.8125 L 33.460938 36.511719 L 54.21875 33.1875 Z M 54.421875 34.503906"/><path fill="#2F8442" d="M 54.976562 37.996094 L 34.21875 41.304688 L 34.015625 39.992188 L 54.761719 36.679688 Z M 54.976562 37.996094"/><path fill="#2F8442" d="M 46.203125 42.859375 L 34.765625 44.683594 L 34.558594 43.378906 L 46 41.542969 Z M 46.203125 42.859375"/></svg>