<svg xmlns="http://www.w3.org/2000/svg" width="262.5" viewBox="0 0 262.5 262.5" height="262.5" version="1.0"><defs><clipPath id="a"><path d="M 78.75 78.75 L 183.75 78.75 L 183.75 183.75 L 78.75 183.75 Z M 78.75 78.75"/></clipPath></defs><path fill="#01B5F0" d="M 112.523438 133.242188 C 113.804688 136.929688 116.789062 140.199219 120.949219 140.199219 C 125.109375 140.199219 128.09375 136.929688 129.378906 133.242188 C 131.0625 132.519531 132.148438 130.363281 132.460938 128.652344 C 132.84375 126.582031 132.058594 125.054688 130.617188 124.570312 C 131.617188 118.253906 126.96875 114.621094 120.953125 114.621094 C 114.9375 114.621094 110.472656 118.253906 111.316406 124.558594 C 109.855469 125.035156 109.054688 126.566406 109.4375 128.652344 C 109.753906 130.363281 110.835938 132.519531 112.523438 133.242188 Z M 113.164062 127.359375 C 113.4375 128.042969 113.597656 128.800781 113.683594 129.195312 C 113.722656 129.382812 113.808594 129.453125 113.929688 129.496094 C 114.109375 129.566406 114.347656 129.636719 114.535156 129.6875 C 114.78125 129.777344 115.039062 129.570312 115 129.308594 C 114.773438 127.859375 114.808594 127.523438 114.878906 126.832031 C 114.894531 126.683594 114.910156 126.519531 114.925781 126.332031 C 116.796875 126.492188 118.4375 125.871094 119.765625 125.210938 C 119.726562 125.253906 119.683594 125.300781 119.640625 125.34375 C 119.210938 125.792969 118.644531 126.25 117.863281 126.824219 C 117.558594 127.046875 117.757812 127.488281 118.097656 127.453125 C 119.621094 127.304688 121.097656 126.871094 122.394531 126.359375 C 124.1875 125.652344 125.648438 124.78125 126.402344 124.296875 C 126.535156 124.949219 126.664062 125.449219 126.777344 125.878906 C 127.0625 126.972656 127.210938 127.570312 126.921875 129.300781 C 126.882812 129.542969 127.109375 129.757812 127.351562 129.695312 C 127.5625 129.640625 127.761719 129.5625 127.96875 129.5 C 128.097656 129.460938 128.1875 129.367188 128.214844 129.238281 C 128.351562 128.597656 128.5 127.964844 128.742188 127.355469 C 129.6875 126.976562 129.914062 127.140625 129.726562 128.152344 C 129.113281 131.488281 127.28125 130.265625 126.929688 131.777344 C 126.121094 134.519531 124.105469 137.410156 120.949219 137.410156 C 117.792969 137.410156 115.78125 134.519531 114.96875 131.777344 C 114.617188 130.265625 112.789062 131.488281 112.171875 128.152344 C 111.929688 126.832031 112.335938 127.042969 113.164062 127.359375 Z M 113.164062 127.359375"/><path fill="#01B5F0" d="M 133.640625 142.382812 C 133.667969 142.878906 133.625 143.425781 133.519531 144.039062 C 135.503906 144.949219 136.578125 146.953125 136.074219 149.261719 L 135.332031 152.652344 C 135.054688 153.910156 134.03125 154.902344 132.761719 155.125 C 132.625 155.148438 132.488281 155.160156 132.351562 155.167969 C 132.074219 155.316406 131.746094 155.371094 131.414062 155.296875 C 130.691406 155.132812 130.234375 154.414062 130.398438 153.6875 C 130.609375 152.742188 131.71875 152.335938 132.492188 152.886719 C 132.828125 152.78125 133.0625 152.53125 133.140625 152.179688 L 133.882812 148.789062 C 134.445312 146.210938 131.609375 145.230469 130.128906 146.160156 C 129.660156 146.457031 129.28125 146.964844 129.109375 147.714844 L 128.332031 151.09375 C 128.25 151.441406 128.355469 151.773438 128.613281 152.019531 C 129.550781 151.851562 130.378906 152.691406 130.164062 153.636719 C 130.003906 154.363281 129.28125 154.820312 128.558594 154.65625 C 128.226562 154.582031 127.949219 154.390625 127.765625 154.136719 C 127.621094 154.011719 127.09375 153.855469 126.558594 153.007812 C 126.09375 152.273438 125.953125 151.441406 126.148438 150.59375 L 126.925781 147.214844 C 127.445312 144.953125 129.195312 143.609375 131.328125 143.578125 C 131.597656 141.980469 131.332031 141.484375 129.863281 140.777344 C 129.121094 140.488281 128.386719 140.207031 127.6875 139.933594 C 126.761719 143.058594 123.554688 146.480469 120.949219 148.847656 C 118.34375 146.480469 115.136719 143.058594 114.210938 139.933594 C 113.402344 140.25 112.546875 140.578125 111.691406 140.914062 C 110.753906 141.585938 110.1875 142.664062 110.046875 143.921875 C 109.851562 145.667969 110.457031 147.535156 111.542969 149.171875 C 113.148438 148.984375 114.554688 150.234375 114.554688 151.847656 C 114.554688 153.335938 113.347656 154.539062 111.859375 154.539062 C 109.6875 154.539062 108.433594 152.101562 109.632812 150.335938 C 108.277344 148.253906 107.570312 145.898438 107.820312 143.675781 C 107.867188 143.261719 107.945312 142.863281 108.054688 142.480469 C 106.546875 143.222656 105.28125 144.03125 104.605469 144.933594 C 103.484375 146.417969 102.878906 152.628906 102.539062 156.328125 C 102.4375 157.441406 103.207031 158.433594 104.308594 158.617188 C 109.800781 159.53125 115.390625 159.96875 120.949219 159.96875 C 126.511719 159.96875 132.097656 159.53125 137.59375 158.617188 C 138.691406 158.433594 139.460938 157.441406 139.359375 156.328125 C 139.023438 152.628906 138.414062 146.417969 137.292969 144.929688 C 136.585938 143.992188 135.238281 143.152344 133.640625 142.382812 Z M 133.640625 142.382812"/><g clip-path="url(#a)"><path fill="#01B5F0" d="M 131.25 78.75 C 102.253906 78.75 78.75 102.253906 78.75 131.25 C 78.75 160.246094 102.253906 183.75 131.25 183.75 C 160.246094 183.75 183.75 160.246094 183.75 131.25 C 183.75 102.253906 160.246094 78.75 131.25 78.75 Z M 131.25 178.363281 C 105.230469 178.363281 84.132812 157.269531 84.132812 131.25 C 84.132812 105.230469 105.230469 84.132812 131.25 84.132812 C 157.269531 84.132812 178.363281 105.230469 178.363281 131.25 C 178.363281 157.269531 157.269531 178.363281 131.25 178.363281 Z M 131.25 178.363281"/></g><path fill="#01B5F0" d="M 157.5 102.53125 L 137.757812 102.53125 C 136.398438 102.53125 135.289062 103.640625 135.289062 105 L 135.289062 124.742188 C 135.289062 126.101562 136.398438 127.210938 137.757812 127.210938 L 157.5 127.210938 C 158.859375 127.210938 159.96875 126.101562 159.96875 124.742188 L 159.96875 105 C 159.96875 103.640625 158.859375 102.53125 157.5 102.53125 Z M 155.703125 117.117188 C 155.703125 117.363281 155.503906 117.5625 155.257812 117.5625 L 150.769531 117.5625 C 150.523438 117.5625 150.320312 117.765625 150.320312 118.011719 L 150.320312 122.535156 L 150.316406 122.546875 L 150.316406 122.566406 L 150.3125 122.578125 L 150.3125 122.589844 L 150.308594 122.601562 L 150.304688 122.609375 L 150.300781 122.621094 L 150.300781 122.632812 L 150.296875 122.640625 L 150.289062 122.664062 L 150.285156 122.671875 L 150.277344 122.683594 L 150.273438 122.691406 L 150.269531 122.703125 L 150.261719 122.710938 L 150.257812 122.722656 L 150.25 122.730469 L 150.246094 122.738281 L 150.238281 122.746094 L 150.234375 122.757812 L 150.21875 122.773438 L 150.214844 122.78125 L 150.207031 122.789062 L 150.199219 122.800781 L 150.183594 122.816406 L 150.175781 122.820312 L 150.164062 122.828125 L 150.140625 122.851562 L 150.132812 122.855469 L 150.125 122.863281 L 150.113281 122.871094 L 150.105469 122.875 L 150.097656 122.882812 L 150.085938 122.886719 L 150.078125 122.890625 L 150.070312 122.898438 L 150.058594 122.902344 L 150.050781 122.90625 L 150.039062 122.910156 L 150.023438 122.917969 L 150 122.925781 L 149.992188 122.929688 L 149.980469 122.933594 L 149.96875 122.933594 L 149.960938 122.9375 L 149.949219 122.9375 L 149.9375 122.941406 L 149.925781 122.941406 L 149.917969 122.945312 L 145.339844 122.945312 L 145.328125 122.941406 L 145.320312 122.941406 L 145.308594 122.9375 L 145.296875 122.9375 L 145.285156 122.933594 L 145.277344 122.933594 L 145.253906 122.925781 L 145.246094 122.921875 L 145.234375 122.917969 L 145.226562 122.914062 L 145.214844 122.910156 L 145.207031 122.90625 L 145.195312 122.902344 L 145.1875 122.898438 L 145.175781 122.890625 L 145.160156 122.882812 L 145.152344 122.875 L 145.140625 122.871094 L 145.125 122.855469 L 145.117188 122.851562 L 145.109375 122.84375 L 145.097656 122.835938 L 145.082031 122.820312 L 145.074219 122.816406 L 145.058594 122.800781 L 145.050781 122.789062 L 145.035156 122.773438 L 145.03125 122.765625 L 145.023438 122.757812 L 145.015625 122.746094 L 145.011719 122.738281 L 145.003906 122.730469 L 145 122.722656 L 144.992188 122.710938 L 144.988281 122.703125 L 144.980469 122.691406 L 144.976562 122.683594 L 144.972656 122.671875 L 144.96875 122.664062 L 144.960938 122.640625 L 144.957031 122.632812 L 144.953125 122.621094 L 144.953125 122.609375 L 144.949219 122.601562 L 144.945312 122.589844 L 144.945312 122.578125 L 144.941406 122.566406 L 144.941406 122.558594 L 144.9375 122.546875 L 144.9375 118.011719 C 144.9375 117.765625 144.734375 117.5625 144.488281 117.5625 L 140 117.5625 C 139.753906 117.5625 139.550781 117.363281 139.550781 117.117188 L 139.550781 112.628906 C 139.550781 112.378906 139.753906 112.179688 140 112.179688 L 144.488281 112.179688 C 144.734375 112.179688 144.9375 111.976562 144.9375 111.730469 L 144.9375 107.242188 C 144.933594 106.996094 145.136719 106.792969 145.382812 106.792969 L 149.871094 106.792969 C 150.117188 106.792969 150.320312 106.996094 150.320312 107.242188 L 150.320312 111.730469 C 150.320312 111.976562 150.519531 112.179688 150.769531 112.179688 L 155.253906 112.179688 C 155.503906 112.179688 155.703125 112.378906 155.703125 112.628906 Z M 155.703125 117.117188"/></svg>