<svg xmlns="http://www.w3.org/2000/svg" width="90" viewBox="0 0 90 90" height="90" version="1.0"><defs><clipPath id="a"><path d="M 15.269531 15.269531 L 74.519531 15.269531 L 74.519531 74.519531 L 15.269531 74.519531 Z M 15.269531 15.269531"/></clipPath></defs><g clip-path="url(#a)"><path fill="#4ABC96" d="M 15.269531 44.894531 C 15.269531 28.539062 28.539062 15.269531 44.894531 15.269531 C 61.253906 15.269531 74.519531 28.539062 74.519531 44.894531 C 74.519531 61.253906 61.253906 74.519531 44.894531 74.519531 C 28.539062 74.519531 15.269531 61.253906 15.269531 44.894531 Z M 15.269531 44.894531"/></g><path fill="#FFF" d="M 28.542969 29.441406 L 55.347656 25.164062 L 61.261719 62.210938 L 34.460938 66.492188 Z M 28.542969 29.441406"/><path fill="#E84849" d="M 46.652344 57.265625 C 46.652344 52.910156 50.1875 49.386719 54.53125 49.386719 C 58.890625 49.386719 62.414062 52.921875 62.414062 57.265625 C 62.414062 61.625 58.878906 65.148438 54.53125 65.148438 C 50.1875 65.148438 46.652344 61.625 46.652344 57.265625"/><path fill="#FFF" d="M 50.605469 56.15625 L 58.988281 56.15625 L 58.988281 58.570312 L 50.605469 58.570312 Z M 50.605469 56.15625"/><path fill="#E84849" d="M 53.839844 30.640625 L 31.976562 34.125 L 31.761719 32.753906 L 53.613281 29.253906 Z M 53.839844 30.640625"/><path fill="#E84849" d="M 54.472656 34.089844 L 32.609375 37.589844 L 32.382812 36.203125 L 54.246094 32.714844 Z M 54.472656 34.089844"/><path fill="#E84849" d="M 55.046875 37.769531 L 33.195312 41.253906 L 32.96875 39.882812 L 54.820312 36.382812 Z M 55.046875 37.769531"/><path fill="#E84849" d="M 45.816406 42.890625 L 33.753906 44.8125 L 33.539062 43.441406 L 45.589844 41.503906 Z M 45.816406 42.890625"/></svg>